<?xml version="1.0" encoding="UTF-8" standalone="no"?>
<!DOCTYPE svg PUBLIC "-//W3C//DTD SVG 1.1//EN" "http://www.w3.org/Graphics/SVG/1.1/DTD/svg11.dtd">
<svg width="75%" height="75%" viewBox="0 0 40 40" version="1.1" xmlns="http://www.w3.org/2000/svg" xmlns:xlink="http://www.w3.org/1999/xlink" xml:space="preserve" style="fill-rule:evenodd;clip-rule:evenodd;stroke-linejoin:round;stroke-miterlimit:1.41421;">
    <g transform="matrix(0.707107,-0.707107,0.707107,0.707107,-22.1313,13.1343)">
        <path d="M23.719,33.33C23.851,33.489 23.963,33.657 24.046,33.847C24.293,34.416 24.259,35.083 23.955,35.623C23.871,35.772 23.768,35.91 23.65,36.033C23.587,36.099 23.518,36.158 23.449,36.216C23.276,36.36 23.102,36.501 22.927,36.642C21.8,37.539 20.633,38.388 19.426,39.175C18.328,39.89 17.195,40.556 16.017,41.131C15.61,41.329 15.197,41.517 14.778,41.689C14.43,41.833 14.078,41.967 13.721,42.087C13.507,42.159 13.293,42.227 13.076,42.289C11.667,42.693 10.146,42.882 8.708,42.511C8.476,42.451 8.248,42.377 8.026,42.288C7.644,42.135 7.279,41.939 6.943,41.701C6.701,41.531 6.473,41.339 6.263,41.13C6.111,40.979 5.967,40.818 5.833,40.649C4.927,39.508 4.496,38.068 4.314,36.641C4.287,36.43 4.265,36.218 4.248,36.006C4.206,35.494 4.191,34.98 4.196,34.466C4.199,34.126 4.212,33.785 4.235,33.445C4.251,33.23 4.27,33.016 4.295,32.802C4.451,31.45 4.819,30.085 5.6,28.953C5.723,28.774 5.856,28.602 5.999,28.439C6.196,28.214 6.41,28.005 6.642,27.815C6.932,27.578 7.247,27.371 7.581,27.201C8.045,26.965 8.542,26.799 9.052,26.699C9.762,26.56 10.492,26.549 11.21,26.624C12.141,26.722 13.053,26.962 13.934,27.274C14.928,27.626 15.888,28.071 16.819,28.566C18.061,29.226 19.255,29.975 20.412,30.775C21.455,31.497 22.472,32.26 23.449,33.071C23.514,33.126 23.513,33.126 23.577,33.183C23.65,33.254 23.65,33.254 23.719,33.33ZM18.814,34.544C17.677,33.729 16.508,32.958 15.282,32.282C14.42,31.807 13.529,31.374 12.6,31.045C11.96,30.818 11.29,30.632 10.61,30.587C10.244,30.563 9.856,30.576 9.511,30.714C9.419,30.751 9.33,30.798 9.248,30.855C8.891,31.107 8.687,31.534 8.549,31.936C8.516,32.032 8.487,32.13 8.46,32.228C8.43,32.34 8.403,32.452 8.379,32.565C8.227,33.292 8.189,34.042 8.196,34.784C8.203,35.519 8.256,36.265 8.439,36.979C8.465,37.081 8.494,37.182 8.526,37.283C8.555,37.371 8.586,37.458 8.621,37.543C8.778,37.934 9.012,38.325 9.399,38.523C9.716,38.684 10.088,38.717 10.438,38.708C10.734,38.701 11.028,38.661 11.318,38.604C11.699,38.528 12.073,38.422 12.44,38.298C13.366,37.985 14.254,37.562 15.113,37.098C16.4,36.401 17.624,35.596 18.814,34.744L18.952,34.644C18.906,34.61 18.86,34.577 18.814,34.544Z" style="fill:rgb(51,51,51);fill-rule:nonzero;"/>
    </g>
    <g transform="matrix(-0.707107,0.707107,-0.707107,-0.707107,62.1445,26.842)">
        <path d="M6.173,41.039C5.936,40.785 5.718,40.516 5.527,40.226C4.966,39.374 4.629,38.393 4.435,37.396C4.303,36.718 4.235,36.03 4.208,35.341C4.193,34.933 4.191,34.525 4.203,34.118C4.211,33.839 4.225,33.56 4.248,33.282C4.265,33.069 4.287,32.857 4.314,32.646C4.491,31.262 4.9,29.866 5.753,28.741C5.884,28.569 6.024,28.404 6.173,28.249C6.379,28.034 6.602,27.837 6.841,27.66C7.173,27.414 7.534,27.208 7.914,27.046C8.387,26.844 8.887,26.712 9.396,26.641C10.109,26.543 10.833,26.565 11.544,26.666C12.434,26.792 13.304,27.04 14.146,27.351C14.429,27.455 14.71,27.567 14.987,27.686C16.54,28.347 18.013,29.192 19.426,30.112C20.107,30.556 20.774,31.02 21.429,31.5C22.118,32.004 22.792,32.526 23.449,33.071C23.514,33.126 23.513,33.126 23.577,33.183C23.642,33.246 23.659,33.261 23.719,33.33C23.831,33.459 23.927,33.602 24.003,33.754C24.294,34.342 24.276,35.052 23.955,35.623C23.871,35.772 23.768,35.91 23.65,36.033C23.587,36.099 23.518,36.158 23.449,36.216C23.276,36.36 23.102,36.501 22.927,36.642C22.059,37.332 21.169,37.994 20.254,38.621C19.572,39.088 18.878,39.537 18.168,39.96C17.596,40.301 17.014,40.626 16.421,40.929C15.95,41.169 15.473,41.395 14.987,41.602C14.64,41.75 14.289,41.888 13.934,42.014C13.686,42.101 13.436,42.183 13.184,42.257C11.743,42.683 10.183,42.891 8.708,42.511C8.515,42.461 8.325,42.401 8.139,42.332C7.871,42.231 7.612,42.111 7.364,41.969C6.998,41.76 6.664,41.506 6.355,41.22C6.263,41.13 6.263,41.13 6.173,41.039ZM9.107,38.316C9.173,38.378 9.244,38.433 9.321,38.48C9.498,38.586 9.699,38.646 9.902,38.677C10.175,38.72 10.455,38.717 10.73,38.691C10.836,38.681 10.942,38.668 11.047,38.652C11.185,38.63 11.322,38.604 11.459,38.574C11.632,38.537 11.804,38.492 11.974,38.444C13.008,38.147 13.995,37.692 14.943,37.189C16.293,36.472 17.572,35.633 18.814,34.744L18.952,34.644C18.035,33.977 17.093,33.344 16.119,32.763C15.301,32.275 14.46,31.821 13.587,31.438C12.968,31.166 12.332,30.927 11.676,30.764C11.22,30.65 10.749,30.569 10.278,30.579C9.969,30.585 9.647,30.63 9.372,30.779C9,30.979 8.774,31.363 8.621,31.744C8.595,31.807 8.571,31.871 8.549,31.936C8.516,32.032 8.487,32.13 8.46,32.228C8.43,32.34 8.403,32.452 8.379,32.565C8.346,32.725 8.318,32.887 8.296,33.049C8.264,33.273 8.242,33.498 8.226,33.724C8.208,33.984 8.198,34.244 8.196,34.504C8.193,34.816 8.199,35.129 8.218,35.441C8.242,35.84 8.285,36.239 8.361,36.631C8.417,36.92 8.491,37.207 8.597,37.482C8.693,37.735 8.817,37.979 8.989,38.19C9.027,38.234 9.066,38.276 9.107,38.316Z" style="fill:rgb(51,51,51);fill-rule:nonzero;"/>
    </g>
</svg>
