<?xml version="1.0" encoding="UTF-8" standalone="no"?>
<!DOCTYPE svg PUBLIC "-//W3C//DTD SVG 1.1//EN" "http://www.w3.org/Graphics/SVG/1.1/DTD/svg11.dtd">
<svg width="100%" height="100%" viewBox="0 0 40 40" version="1.1" xmlns="http://www.w3.org/2000/svg" xmlns:xlink="http://www.w3.org/1999/xlink" xml:space="preserve" style="fill-rule:evenodd;clip-rule:evenodd;stroke-linejoin:round;stroke-miterlimit:1.41421;">
    <g transform="matrix(1,0,0,1,7.03735,-2.97439)">
        <path d="M5.637,17.466L8.877,17.502C8.985,15.054 10.389,13.83 12.729,13.83C14.961,13.83 16.437,14.838 16.437,16.926C16.437,21.282 11.433,21.318 11.433,27.114L14.601,27.114C14.601,22.254 20.289,22.002 20.289,16.314C20.289,12.39 17.409,10.302 13.089,10.302C8.625,10.302 5.781,12.894 5.637,17.466ZM12.981,30.894C11.685,30.894 10.713,31.866 10.713,33.234C10.713,34.638 11.685,35.646 12.981,35.646C14.277,35.646 15.249,34.638 15.249,33.234C15.249,31.866 14.277,30.894 12.981,30.894Z" style="fill:rgb(51,51,51);fill-rule:nonzero;"/>
    </g>
</svg>
